<?xml version="1.0" encoding="utf-8"?>
<!-- Generator: Adobe Illustrator 24.3.0, SVG Export Plug-In . SVG Version: 6.00 Build 0)  -->
<svg version="1.1" id="Layer_1" xmlns="http://www.w3.org/2000/svg" xmlns:xlink="http://www.w3.org/1999/xlink" x="0px" y="0px"
	 viewBox="0 0 456.3 89.9" style="enable-background:new 0 0 456.3 89.9;" xml:space="preserve">
<style type="text/css">
	.st0{fill:none;stroke:#F86AFF;stroke-width:4;stroke-miterlimit:10;}
	.st1{fill:#F86AFF;}
</style>
<line class="st0" x1="300.3" y1="18.7" x2="300.3" y2="71.2"/>
<polyline class="st0" points="326.5,71.2 351.3,18.7 377.5,71.2 "/>
<polyline class="st0" points="401.7,71.2 401.7,16.7 443.6,71.2 443.6,16.7 "/>
<polyline class="st0" points="113.7,16.7 113.7,72.9 149.1,72.9 "/>
<line class="st0" x1="170.6" y1="18.7" x2="206" y2="18.7"/>
<line class="st0" x1="170.6" y1="44.3" x2="206" y2="44.3"/>
<line class="st0" x1="170.6" y1="71.2" x2="206" y2="71.2"/>
<polyline class="st0" points="226.4,18.7 250.6,71.2 275.4,18.7 "/>
<polygon class="st1" points="23.8,16.7 48.3,30.3 23.8,44.3 23.8,72.9 0,58.2 0,32.3 "/>
<polygon class="st1" points="30.3,13.3 52.4,26.6 52.4,55.8 76.9,41.2 76.9,13.3 53.6,0 "/>
<polygon class="st1" points="30.3,48 30.3,74.2 53.6,89.9 76.9,74.2 76.9,48 53.6,64.7 "/>
</svg>
