<?xml version="1.0" encoding="utf-8"?>
<!-- Generator: Adobe Illustrator 24.3.0, SVG Export Plug-In . SVG Version: 6.00 Build 0)  -->
<svg version="1.1" id="Layer_1" xmlns="http://www.w3.org/2000/svg" xmlns:xlink="http://www.w3.org/1999/xlink" x="0px" y="0px"
	 viewBox="0 0 500 500" style="enable-background:new 0 0 500 500;" xml:space="preserve">
<style type="text/css">
	.st0{fill:#F86AFF;stroke:#F86AFF;stroke-width:2;stroke-miterlimit:10;}
	.st1{fill:none;stroke:#F86AFF;stroke-width:2;stroke-miterlimit:10;}
	.st2{fill:#F86AFF;}
</style>
<line class="st0" x1="330" y1="224.47" x2="330" y2="276.89"/>
<polyline class="st1" points="356.21,276.89 381.06,224.47 407.28,276.89 "/>
<polyline class="st1" points="431.45,276.89 431.45,222.43 473.32,276.89 473.32,222.43 "/>
<polyline class="st1" points="143.45,222.43 143.45,278.6 178.85,278.6 "/>
<line class="st0" x1="200.3" y1="224.47" x2="235.7" y2="224.47"/>
<line class="st0" x1="200.3" y1="250" x2="235.7" y2="250"/>
<line class="st0" x1="200.3" y1="276.89" x2="235.7" y2="276.89"/>
<polyline class="st1" points="256.13,224.47 280.3,276.89 305.15,224.47 "/>
<polygon class="st2" points="53.57,222.43 78.09,236.04 53.57,250 53.57,278.6 29.74,263.96 29.74,238.09 "/>
<polygon class="st2" points="60.04,219.02 82.17,232.3 82.17,261.57 106.68,246.94 106.68,219.02 83.36,205.74 "/>
<polygon class="st2" points="60.04,253.74 60.04,279.96 83.36,295.62 106.68,279.96 106.68,253.74 83.36,270.43 "/>
</svg>
